<svg width="90" height="30" viewBox="0 0 90 30" fill="none" xmlns="http://www.w3.org/2000/svg">
<path d="M16.6078 23.1828L14.2964 25.4942H5.13034V11.7053L7.44178 9.44703H4.81152V7.1356H14.2964L16.6078 9.44703V23.1828ZM13.9776 23.1828V9.44703H7.7606V25.1754L9.70008 23.1828H13.9776Z" fill="url(#paint0_linear_941_669)"/>
<path d="M29.6572 25.4942H22.4572L20.1723 23.1828V14.0168L22.4572 11.7053H27.3723L29.6572 14.0168V18.6131L27.3723 20.8979H23.1214L25.4594 18.6131H27.0535V14.0168H22.8026V23.1828H29.6572V25.4942Z" fill="url(#paint1_linear_941_669)"/>
<path d="M42.2586 23.1828L39.9472 25.4942H35.3509V23.2094L32.7206 25.8131V6.94962L35.3509 4.18652V13.3526L36.9981 11.7053H39.9472L42.2586 14.0168V23.1828ZM39.6284 23.1828V14.0168H35.3509V23.1828H39.6284Z" fill="url(#paint2_linear_941_669)"/>
<path d="M54.9674 16.3016L52.3371 18.9319V14.0168H48.4316V25.4942H45.8013V11.7053H48.4316V13.698L50.3445 11.7053H52.6825L54.9674 14.0168V16.3016Z" fill="url(#paint3_linear_941_669)"/>
<path d="M59.9327 9.44703H57.3025V6.81678H59.9327V9.44703ZM59.9327 25.4942H57.3025V13.7245L59.9327 11.0677V25.4942Z" fill="url(#paint4_linear_941_669)"/>
<path d="M72.9375 25.4942H65.7375L63.4526 23.1828V14.0168L65.7375 11.7053H70.6526L72.9375 14.0168V18.6131L70.6526 20.8979H66.4017L68.7397 18.6131H70.3338V14.0168H66.0829V23.1828H72.9375V25.4942Z" fill="url(#paint5_linear_941_669)"/>
<path d="M84.2105 7.1356H78.6312V13.3526L80.2784 11.7053H83.1743L80.8895 14.0168H78.6312V25.4942H76.0009V7.1356L78.3123 4.82416H81.8725L84.2105 7.1356Z" fill="url(#paint6_linear_941_669)"/>
<path d="M16.6078 23.1828L14.2964 25.4942H5.13034V11.7053L7.44178 9.44703H4.81152V7.1356H14.2964L16.6078 9.44703V23.1828ZM13.9776 23.1828V9.44703H7.7606V25.1754L9.70008 23.1828H13.9776Z" stroke="url(#paint7_linear_941_669)" stroke-width="1.5"/>
<path d="M29.6572 25.4942H22.4572L20.1723 23.1828V14.0168L22.4572 11.7053H27.3723L29.6572 14.0168V18.6131L27.3723 20.8979H23.1214L25.4594 18.6131H27.0535V14.0168H22.8026V23.1828H29.6572V25.4942Z" stroke="url(#paint8_linear_941_669)" stroke-width="1.5"/>
<path d="M42.2586 23.1828L39.9472 25.4942H35.3509V23.2094L32.7206 25.8131V6.94962L35.3509 4.18652V13.3526L36.9981 11.7053H39.9472L42.2586 14.0168V23.1828ZM39.6284 23.1828V14.0168H35.3509V23.1828H39.6284Z" stroke="url(#paint9_linear_941_669)" stroke-width="1.5"/>
<path d="M54.9674 16.3016L52.3371 18.9319V14.0168H48.4316V25.4942H45.8013V11.7053H48.4316V13.698L50.3445 11.7053H52.6825L54.9674 14.0168V16.3016Z" stroke="url(#paint10_linear_941_669)" stroke-width="1.5"/>
<path d="M59.9327 9.44703H57.3025V6.81678H59.9327V9.44703ZM59.9327 25.4942H57.3025V13.7245L59.9327 11.0677V25.4942Z" stroke="url(#paint11_linear_941_669)" stroke-width="1.5"/>
<path d="M72.9375 25.4942H65.7375L63.4526 23.1828V14.0168L65.7375 11.7053H70.6526L72.9375 14.0168V18.6131L70.6526 20.8979H66.4017L68.7397 18.6131H70.3338V14.0168H66.0829V23.1828H72.9375V25.4942Z" stroke="url(#paint12_linear_941_669)" stroke-width="1.5"/>
<path d="M84.2105 7.1356H78.6312V13.3526L80.2784 11.7053H83.1743L80.8895 14.0168H78.6312V25.4942H76.0009V7.1356L78.3123 4.82416H81.8725L84.2105 7.1356Z" stroke="url(#paint13_linear_941_669)" stroke-width="1.5"/>
<defs>
<linearGradient id="paint0_linear_941_669" x1="85.4477" y1="19.7262" x2="52.1389" y2="66.5792" gradientUnits="userSpaceOnUse">
<stop offset="0.0568044" stop-color="#FCDC7A"/>
<stop offset="0.335825" stop-color="#FAA976"/>
<stop offset="0.804487" stop-color="#EF4636"/>
</linearGradient>
<linearGradient id="paint1_linear_941_669" x1="85.4477" y1="19.7262" x2="52.1389" y2="66.5792" gradientUnits="userSpaceOnUse">
<stop offset="0.0568044" stop-color="#FCDC7A"/>
<stop offset="0.335825" stop-color="#FAA976"/>
<stop offset="0.804487" stop-color="#EF4636"/>
</linearGradient>
<linearGradient id="paint2_linear_941_669" x1="85.4477" y1="19.7262" x2="52.1389" y2="66.5792" gradientUnits="userSpaceOnUse">
<stop offset="0.0568044" stop-color="#FCDC7A"/>
<stop offset="0.335825" stop-color="#FAA976"/>
<stop offset="0.804487" stop-color="#EF4636"/>
</linearGradient>
<linearGradient id="paint3_linear_941_669" x1="85.4477" y1="19.7262" x2="52.1389" y2="66.5792" gradientUnits="userSpaceOnUse">
<stop offset="0.0568044" stop-color="#FCDC7A"/>
<stop offset="0.335825" stop-color="#FAA976"/>
<stop offset="0.804487" stop-color="#EF4636"/>
</linearGradient>
<linearGradient id="paint4_linear_941_669" x1="85.4477" y1="19.7262" x2="52.1389" y2="66.5792" gradientUnits="userSpaceOnUse">
<stop offset="0.0568044" stop-color="#FCDC7A"/>
<stop offset="0.335825" stop-color="#FAA976"/>
<stop offset="0.804487" stop-color="#EF4636"/>
</linearGradient>
<linearGradient id="paint5_linear_941_669" x1="85.4477" y1="19.7262" x2="52.1389" y2="66.5792" gradientUnits="userSpaceOnUse">
<stop offset="0.0568044" stop-color="#FCDC7A"/>
<stop offset="0.335825" stop-color="#FAA976"/>
<stop offset="0.804487" stop-color="#EF4636"/>
</linearGradient>
<linearGradient id="paint6_linear_941_669" x1="85.4477" y1="19.7262" x2="52.1389" y2="66.5792" gradientUnits="userSpaceOnUse">
<stop offset="0.0568044" stop-color="#FCDC7A"/>
<stop offset="0.335825" stop-color="#FAA976"/>
<stop offset="0.804487" stop-color="#EF4636"/>
</linearGradient>
<linearGradient id="paint7_linear_941_669" x1="85.4477" y1="19.7262" x2="52.1389" y2="66.5792" gradientUnits="userSpaceOnUse">
<stop offset="0.0568044" stop-color="#FCDC7A"/>
<stop offset="0.335825" stop-color="#FAA976"/>
<stop offset="0.804487" stop-color="#EF4636"/>
</linearGradient>
<linearGradient id="paint8_linear_941_669" x1="85.4477" y1="19.7262" x2="52.1389" y2="66.5792" gradientUnits="userSpaceOnUse">
<stop offset="0.0568044" stop-color="#FCDC7A"/>
<stop offset="0.335825" stop-color="#FAA976"/>
<stop offset="0.804487" stop-color="#EF4636"/>
</linearGradient>
<linearGradient id="paint9_linear_941_669" x1="85.4477" y1="19.7262" x2="52.1389" y2="66.5792" gradientUnits="userSpaceOnUse">
<stop offset="0.0568044" stop-color="#FCDC7A"/>
<stop offset="0.335825" stop-color="#FAA976"/>
<stop offset="0.804487" stop-color="#EF4636"/>
</linearGradient>
<linearGradient id="paint10_linear_941_669" x1="85.4477" y1="19.7262" x2="52.1389" y2="66.5792" gradientUnits="userSpaceOnUse">
<stop offset="0.0568044" stop-color="#FCDC7A"/>
<stop offset="0.335825" stop-color="#FAA976"/>
<stop offset="0.804487" stop-color="#EF4636"/>
</linearGradient>
<linearGradient id="paint11_linear_941_669" x1="85.4477" y1="19.7262" x2="52.1389" y2="66.5792" gradientUnits="userSpaceOnUse">
<stop offset="0.0568044" stop-color="#FCDC7A"/>
<stop offset="0.335825" stop-color="#FAA976"/>
<stop offset="0.804487" stop-color="#EF4636"/>
</linearGradient>
<linearGradient id="paint12_linear_941_669" x1="85.4477" y1="19.7262" x2="52.1389" y2="66.5792" gradientUnits="userSpaceOnUse">
<stop offset="0.0568044" stop-color="#FCDC7A"/>
<stop offset="0.335825" stop-color="#FAA976"/>
<stop offset="0.804487" stop-color="#EF4636"/>
</linearGradient>
<linearGradient id="paint13_linear_941_669" x1="85.4477" y1="19.7262" x2="52.1389" y2="66.5792" gradientUnits="userSpaceOnUse">
<stop offset="0.0568044" stop-color="#FCDC7A"/>
<stop offset="0.335825" stop-color="#FAA976"/>
<stop offset="0.804487" stop-color="#EF4636"/>
</linearGradient>
</defs>
</svg>
